<svg width="720" height="520" viewBox="0 0 720 520" fill="none" xmlns="http://www.w3.org/2000/svg">
  <rect width="720" height="520" rx="28" fill="#EAF0F7"/>
  <path d="M0 375H720V520H0V375Z" fill="#DCE7EA"/>
  <path d="M54 92H666" stroke="#C6D2DF" stroke-width="2" stroke-dasharray="8 12"/>
  <path d="M54 182H666" stroke="#C6D2DF" stroke-width="2" stroke-dasharray="8 12"/>
  <path d="M54 272H666" stroke="#C6D2DF" stroke-width="2" stroke-dasharray="8 12"/>
  <rect x="78" y="76" width="292" height="210" rx="18" fill="#182033"/>
  <rect x="102" y="102" width="106" height="62" rx="10" fill="#F7FAFC"/>
  <rect x="224" y="102" width="106" height="62" rx="10" fill="#E6F4F1"/>
  <rect x="102" y="182" width="106" height="62" rx="10" fill="#FEF3C7"/>
  <rect x="224" y="182" width="106" height="62" rx="10" fill="#F7FAFC"/>
  <path d="M124 132H180" stroke="#2454D6" stroke-width="8" stroke-linecap="round"/>
  <path d="M246 132H302" stroke="#0F766E" stroke-width="8" stroke-linecap="round"/>
  <path d="M124 212H180" stroke="#B45309" stroke-width="8" stroke-linecap="round"/>
  <path d="M246 212H302" stroke="#2454D6" stroke-width="8" stroke-linecap="round"/>
  <rect x="425" y="86" width="180" height="274" rx="20" fill="#FFFFFF" stroke="#C6D2DF" stroke-width="3"/>
  <rect x="449" y="116" width="132" height="14" rx="7" fill="#182033"/>
  <rect x="449" y="150" width="84" height="10" rx="5" fill="#667085"/>
  <rect x="449" y="184" width="132" height="44" rx="10" fill="#F3F6FA"/>
  <rect x="449" y="244" width="132" height="44" rx="10" fill="#F3F6FA"/>
  <rect x="449" y="304" width="132" height="20" rx="10" fill="#2454D6"/>
  <path d="M478 206H546" stroke="#0F766E" stroke-width="8" stroke-linecap="round"/>
  <path d="M478 266H532" stroke="#B45309" stroke-width="8" stroke-linecap="round"/>
  <rect x="96" y="355" width="196" height="32" rx="16" fill="#0F766E"/>
  <rect x="316" y="355" width="116" height="32" rx="16" fill="#2454D6"/>
  <rect x="456" y="355" width="92" height="32" rx="16" fill="#B45309"/>
  <path d="M145 386L113 462" stroke="#182033" stroke-width="12" stroke-linecap="round"/>
  <path d="M243 386L276 462" stroke="#182033" stroke-width="12" stroke-linecap="round"/>
  <path d="M364 386L342 462" stroke="#182033" stroke-width="12" stroke-linecap="round"/>
  <path d="M525 386L548 462" stroke="#182033" stroke-width="12" stroke-linecap="round"/>
  <circle cx="114" cy="464" r="18" fill="#182033"/>
  <circle cx="276" cy="464" r="18" fill="#182033"/>
  <circle cx="342" cy="464" r="18" fill="#182033"/>
  <circle cx="548" cy="464" r="18" fill="#182033"/>
  <circle cx="632" cy="406" r="24" fill="#182033"/>
  <rect x="620" y="342" width="24" height="70" rx="12" fill="#182033"/>
  <rect x="584" y="346" width="96" height="18" rx="9" fill="#182033"/>
  <circle cx="78" cy="328" r="18" fill="#2454D6"/>
  <circle cx="122" cy="328" r="18" fill="#0F766E"/>
  <circle cx="166" cy="328" r="18" fill="#B45309"/>
</svg>
