<svg width="420" height="260" viewBox="0 0 420 260" fill="none" xmlns="http://www.w3.org/2000/svg">
  <rect width="420" height="260" rx="20" fill="#F7FAFC"/>
  <rect x="20" y="20" width="380" height="220" rx="16" fill="#182033"/>
  <rect x="40" y="42" width="156" height="76" rx="12" fill="#FFFFFF"/>
  <rect x="224" y="42" width="156" height="76" rx="12" fill="#E6F4F1"/>
  <rect x="40" y="142" width="156" height="76" rx="12" fill="#FEF3C7"/>
  <rect x="224" y="142" width="156" height="76" rx="12" fill="#EEF4FF"/>
  <circle cx="66" cy="68" r="12" fill="#2454D6"/>
  <circle cx="250" cy="68" r="12" fill="#0F766E"/>
  <circle cx="66" cy="168" r="12" fill="#B45309"/>
  <circle cx="250" cy="168" r="12" fill="#2454D6"/>
  <rect x="88" y="60" width="70" height="10" rx="5" fill="#182033"/>
  <rect x="272" y="60" width="70" height="10" rx="5" fill="#182033"/>
  <rect x="88" y="160" width="70" height="10" rx="5" fill="#182033"/>
  <rect x="272" y="160" width="70" height="10" rx="5" fill="#182033"/>
  <rect x="66" y="88" width="104" height="8" rx="4" fill="#D7DEEA"/>
  <rect x="250" y="88" width="104" height="8" rx="4" fill="#BFDCD8"/>
  <rect x="66" y="188" width="104" height="8" rx="4" fill="#E7C982"/>
  <rect x="250" y="188" width="104" height="8" rx="4" fill="#B9CCF7"/>
  <rect x="66" y="100" width="62" height="6" rx="3" fill="#D7DEEA"/>
  <rect x="250" y="100" width="62" height="6" rx="3" fill="#BFDCD8"/>
  <rect x="66" y="200" width="62" height="6" rx="3" fill="#E7C982"/>
  <rect x="250" y="200" width="62" height="6" rx="3" fill="#B9CCF7"/>
</svg>
